<?xml version="1.0" ?><svg id="Layer_1" style="enable-background:new 0 0 512 512;" version="1.1" viewBox="0 0 512 512" xml:space="preserve" xmlns="http://www.w3.org/2000/svg" xmlns:xlink="http://www.w3.org/1999/xlink"><style type="text/css">
	.st0{fill:#2B79C2;}
	.st1{fill:#3B4652;}
</style><g><path class="st0" d="M135.3,233l1.2,0.2c11.4,2,22.1,7.1,30.8,14.7c2.1,1.8,4.1,3.8,6,5.9l25.5-61.2l6.2-14.9   c0.5-0.1,0.9-0.2,1.4-0.3c9.5-2.6,17-8.8,21.5-16.7c4.5-7.9,6-17.5,3.4-27c-0.9-3.1-2.1-6.1-3.7-8.7c-8-13.4-24.2-20.5-40-16.2   c-18.9,5.2-30.1,24.7-24.9,43.7c0.9,3.5,2.4,6.7,4.2,9.6l-7.4,13.5l-31.1,56.7C130.7,232.5,133,232.7,135.3,233L135.3,233z"/><path class="st1" d="M384.3,141.6c0.1,6.6-1.5,12.8-4.4,18.3c-5.6,10.9-16.3,18.8-28.9,20.7c-1.8,0.3-3.6,0.4-5.5,0.4   c-17.2,0.2-31.8-10.8-37.2-26.1h0l-14.3,1l-50.3,3.7c3.3-9.4,3.7-19.6,1-29.5c-0.4-1.4-0.8-2.8-1.3-4.2l50.4,2.8l14.4,0.8   c5.1-15.4,19.6-26.5,36.7-26.7c2.1,0,4.1,0.1,6.1,0.4c12.6,1.9,23.2,9.8,28.9,20.7C382.7,129.3,384.3,135.3,384.3,141.6z"/><path class="st0" d="M390,113.4l22.3-23.9l33.6,33.3l16.5-16.7l-30.6-37.4l-22.5-27.5l-22,23.5L362,91.7   C373.5,95.5,383.4,103.2,390,113.4z"/><path class="st0" d="M412.2,194.5l-22.3-23.9c-6.6,10.2-16.5,17.9-27.9,21.7l25.2,26.9l22,23.5l22.5-27.5l30.6-37.4l-16.5-16.7   L412.2,194.5z"/><path class="st1" d="M377.4,375.5H201v-79.3h-25.7c0-5.3-0.8-10.5-2.5-15.5c-1.4-4.2-3.3-8.2-5.8-12c-2.4-3.7-5.4-7.2-9-10.2   c-7.1-6.2-15.4-10-24.1-11.5h0c-4.4-0.8-8.9-1-13.3-0.5c-12.4,1.1-24.3,6.9-33.1,17c-8.2,9.5-12.3,21.2-12.3,32.8H49.7v79.3v95.2   h327.7c26.3,0,47.6-21.3,47.6-47.6v0C425,396.9,403.7,375.5,377.4,375.5z M317,428.5H83c-3.9,0-7-3.1-7-7s3.1-7,7-7h234   c3.9,0,7,3.1,7,7S320.9,428.5,317,428.5z M371.4,443.4c-11.2,0-20.3-9.1-20.3-20.3s9.1-20.3,20.3-20.3s20.3,9.1,20.3,20.3   S382.6,443.4,371.4,443.4z"/></g></svg>