<?xml version="1.0" ?><svg viewBox="0 0 60 60" xmlns="http://www.w3.org/2000/svg"><title/><g id="colour"><circle cx="4" cy="56" fill="#d32f2e" r="3"/><path d="M5.91178,53.5793a4.54986,4.54986,0,0,0-.96139-.81974,3.12338,3.12338,0,0,1-.47321,3.736,3.12338,3.12338,0,0,1-3.76573-.02691,4.54986,4.54986,0,0,0,.68487,1.0617C2.76013,59.089,4.87652,59.468,6.12344,58.377S7.27559,55.13794,5.91178,53.5793Z" fill="#ba2a2a"/><polygon fill="#999" points="58.45 1.5 58.45 4.79 19.95 43.3 16.65 40 55.16 1.5 58.45 1.5"/><rect fill="#aaa" height="18.79489" transform="translate(-25.94104 24.37277) rotate(-45)" width="3.23854" x="14.83074" y="34.10254"/><polygon fill="#aaa" points="58.45 1.5 58.45 1.55 18.33 41.68 16.65 40 55.16 1.5 58.45 1.5"/><path d="M15.75,46.5,7.29,54.95A3.49511,3.49511,0,0,0,5,52.66l8.46-8.45Z" fill="#999"/></g><g data-name="Layer 1" id="Layer_1"><path d="M59,.00036H55a1.00013,1.00013,0,0,0-.707.293L16,38.58629l-4.293-4.293a.99964.99964,0,0,0-1.41406,0l-3,3a.99964.99964,0,0,0,0,1.41406l4.793,4.793L3.53937,52.04693A3.98946,3.98946,0,1,0,7.95343,56.461L16.5,47.91442l4.793,4.793a.99964.99964,0,0,0,1.41406,0l3-3a.99964.99964,0,0,0,0-1.41406l-4.293-4.293,38.293-38.293a1.00013,1.00013,0,0,0,.293-.707v-4A1,1,0,0,0,59,.00036ZM5.90784,52.50658,7.5,50.91442l1.58594,1.58594L7.49378,54.09252A3.99876,3.99876,0,0,0,5.90784,52.50658Zm3.00623-3.00623L10.5,47.91442l1.58594,1.58594L10.5,51.08629ZM4,58.00036a2,2,0,1,1,2-2A2.00229,2.00229,0,0,1,4,58.00036Zm9.5-9.91406-1.58594-1.58594L13.5,44.91442l1.58594,1.58594Zm8.5,2.5L9.41406,38.00036,11,36.41442,23.58594,49.00036Zm36-46-38,38-2.58594-2.58594,38-38H58Z"/></g></svg>